<svg width="46" height="45" viewBox="0 0 46 45" fill="none" xmlns="http://www.w3.org/2000/svg">
<path fill-rule="evenodd" clip-rule="evenodd" d="M23.1704 1.11682C11.054 1.11682 1.22876 10.9402 1.22876 23.0585C1.22876 32.7529 7.51572 40.9776 16.2338 43.8789C17.3304 44.082 17.733 43.4029 17.733 42.8234C17.733 42.3001 17.7126 40.5717 17.7032 38.7383C11.599 40.0656 10.3109 36.1494 10.3109 36.1494C9.31282 33.6133 7.8747 32.9389 7.8747 32.9389C5.88393 31.5771 8.02476 31.6051 8.02476 31.6051C10.2281 31.7599 11.3882 33.8662 11.3882 33.8662C13.3452 37.2206 16.5212 36.2508 17.7733 35.6902C17.9702 34.272 18.5389 33.3041 19.1664 32.7562C14.2928 32.2013 9.16966 30.3199 9.16966 21.9125C9.16966 19.517 10.0268 17.5596 11.4304 16.023C11.2026 15.4704 10.4515 13.2387 11.643 10.2164C11.643 10.2164 13.4855 9.62672 17.6785 12.4655C19.4287 11.9794 21.3057 11.7356 23.1704 11.7272C25.0351 11.7356 26.9136 11.9794 28.6671 12.4655C32.855 9.62672 34.695 10.2164 34.695 10.2164C35.8893 13.2387 35.1379 15.4704 34.9101 16.023C36.317 17.5596 37.1683 19.517 37.1683 21.9125C37.1683 30.3399 32.0353 32.1955 27.1494 32.7387C27.9364 33.4196 28.6377 34.7549 28.6377 36.802C28.6377 39.7378 28.6122 42.1007 28.6122 42.8234C28.6122 43.4073 29.0072 44.0914 30.1194 43.876C38.8328 40.9714 45.1117 32.7496 45.1117 23.0585C45.1117 10.9402 35.288 1.11682 23.1704 1.11682ZM9.44663 32.3732C9.3983 32.4822 9.22681 32.5149 9.07057 32.44C8.91142 32.3685 8.82204 32.2199 8.87363 32.1105C8.92087 31.9982 9.09273 31.967 9.25151 32.0422C9.41102 32.1138 9.50186 32.2638 9.44663 32.3732ZM10.5259 33.3362C10.4213 33.4332 10.2167 33.3882 10.0779 33.2349C9.93439 33.0819 9.9075 32.8773 10.0136 32.7789C10.1215 32.6818 10.3199 32.7273 10.4638 32.8802C10.6073 33.035 10.6353 33.2381 10.5259 33.3362ZM11.2663 34.5684C11.1319 34.6618 10.9121 34.5742 10.7762 34.3791C10.6418 34.184 10.6418 33.95 10.7791 33.8562C10.9154 33.7625 11.1319 33.8468 11.2696 34.0405C11.4037 34.2388 11.4037 34.4728 11.2663 34.5684ZM12.5186 35.9954C12.3983 36.128 12.1421 36.0924 11.9547 35.9115C11.7628 35.7345 11.7094 35.4835 11.83 35.3508C11.9518 35.2179 12.2094 35.2553 12.3983 35.4348C12.5887 35.6114 12.6468 35.8642 12.5186 35.9954ZM14.137 36.4772C14.0839 36.649 13.8372 36.7271 13.5887 36.6541C13.3405 36.5789 13.1781 36.3776 13.2282 36.2039C13.2798 36.031 13.5276 35.9496 13.778 36.0277C14.0258 36.1026 14.1886 36.3024 14.137 36.4772ZM15.9787 36.6815C15.9849 36.8625 15.7742 37.0125 15.5133 37.0158C15.251 37.0216 15.0388 36.8752 15.0359 36.6971C15.0359 36.5144 15.2419 36.3658 15.5042 36.3614C15.7651 36.3563 15.9787 36.5017 15.9787 36.6815ZM17.7881 36.6122C17.8193 36.7887 17.638 36.97 17.379 37.0184C17.1243 37.0649 16.8885 36.9559 16.8561 36.7807C16.8245 36.5998 17.0091 36.4185 17.2634 36.3716C17.5229 36.3266 17.755 36.4327 17.7881 36.6122Z" fill="#7B4AE2" fill-opacity="0.5"/>
</svg>
