<svg width="64" height="65" viewBox="0 0 64 65" fill="none" xmlns="http://www.w3.org/2000/svg">
<g clip-path="url(#clip0_21_3147)">
<path d="M31.9316 63.0301L9.82022 56.8918L4.84312 1.06787H59.0887L54.1064 56.8825L31.9316 63.0301Z" stroke="#7B4AE2" stroke-opacity="0.5" stroke-width="2"/>
<path fill-rule="evenodd" clip-rule="evenodd" d="M46.4246 47.8313L46.5308 46.6377L48.191 28.0387L48.3633 26.1416H22.6176L21.9719 18.9073H31.9538H48.9834L49.1479 17.3194L49.4698 13.7379L49.6387 11.8425H31.9538H14.2511L14.4202 13.7379L16.1566 33.2063H31.966H40.6409L39.8209 42.3686L31.9647 44.4891L24.067 42.3731L23.5641 36.7387H19.7408H16.4722L17.462 47.8313L31.9335 51.8487L46.4246 47.8313Z" fill="#7B4AE2" fill-opacity="0.5"/>
</g>
<defs>
<clipPath id="clip0_21_3147">
<rect width="64" height="64" fill="white" transform="translate(0 0.0678711)"/>
</clipPath>
</defs>
</svg>
