<svg width="54" height="53" viewBox="0 0 54 53" fill="none" xmlns="http://www.w3.org/2000/svg">
<g filter="url(#filter0_d_21_5621)">
<path d="M25.2093 0.0330886C25.1127 0.0418725 24.8052 0.0726161 24.5285 0.0945758C18.1461 0.66992 12.1677 4.1132 8.38133 9.40549C6.27289 12.3481 4.92437 15.686 4.41483 19.2215C4.23473 20.4556 4.21277 20.8201 4.21277 22.4935C4.21277 24.1668 4.23473 24.5313 4.41483 25.7655C5.63597 34.2024 11.6406 41.291 19.7845 43.9174C21.2428 44.3873 22.7802 44.7079 24.5285 44.9012C25.2093 44.9758 28.1524 44.9758 28.8332 44.9012C31.8509 44.5674 34.4074 43.8207 36.9288 42.5339C37.3153 42.3363 37.39 42.2836 37.3373 42.2397C37.3021 42.2133 35.6549 40.0042 33.6782 37.3339L30.0851 32.4808L25.5827 25.8182C23.1053 22.1553 21.0671 19.16 21.0496 19.16C21.032 19.1556 21.0144 22.1158 21.0056 25.7303C20.9925 32.0591 20.9881 32.3139 20.909 32.4632C20.7948 32.6784 20.7069 32.7662 20.5224 32.8629C20.3819 32.9331 20.2589 32.9463 19.5956 32.9463H18.8357L18.6336 32.8189C18.5019 32.7355 18.4052 32.6257 18.3393 32.4983L18.2471 32.3007L18.2559 23.4948L18.269 14.6846L18.4052 14.5133C18.4755 14.4211 18.6248 14.3025 18.7303 14.2454C18.9104 14.1576 18.9806 14.1488 19.7406 14.1488C20.6367 14.1488 20.786 14.1839 21.0188 14.4387C21.0847 14.5089 23.5226 18.1806 26.4393 22.6033C29.3559 27.026 33.3444 33.0649 35.3035 36.0294L38.8615 41.4184L39.0416 41.2998C40.6361 40.2633 42.3229 38.7876 43.6582 37.2504C46.5002 33.9872 48.3319 30.0081 48.9469 25.7655C49.127 24.5313 49.1489 24.1668 49.1489 22.4935C49.1489 20.8201 49.127 20.4556 48.9469 19.2215C47.7257 10.7846 41.7211 3.69597 33.5772 1.06959C32.1408 0.604041 30.6122 0.283429 28.8991 0.0901838C28.4774 0.0462644 25.5739 -0.00204696 25.2093 0.0330886ZM34.4074 13.6218C34.6183 13.7272 34.7896 13.9292 34.8511 14.14C34.8862 14.2542 34.895 16.6961 34.8862 22.1992L34.873 30.0959L33.4806 27.9614L32.0837 25.827V20.0867C32.0837 16.3755 32.1013 14.2893 32.1277 14.1883C32.1979 13.9424 32.3517 13.7491 32.5625 13.6349C32.7426 13.5427 32.8085 13.5339 33.4981 13.5339C34.1483 13.5339 34.2625 13.5427 34.4074 13.6218Z" fill="#7B4AE2" fill-opacity="0.5"/>
</g>
<defs>
<filter id="filter0_d_21_5621" x="0.212769" y="0.0209961" width="52.9362" height="52.9362" filterUnits="userSpaceOnUse" color-interpolation-filters="sRGB">
<feFlood flood-opacity="0" result="BackgroundImageFix"/>
<feColorMatrix in="SourceAlpha" type="matrix" values="0 0 0 0 0 0 0 0 0 0 0 0 0 0 0 0 0 0 127 0" result="hardAlpha"/>
<feOffset dy="4"/>
<feGaussianBlur stdDeviation="2"/>
<feComposite in2="hardAlpha" operator="out"/>
<feColorMatrix type="matrix" values="0 0 0 0 0 0 0 0 0 0 0 0 0 0 0 0 0 0 0.25 0"/>
<feBlend mode="normal" in2="BackgroundImageFix" result="effect1_dropShadow_21_5621"/>
<feBlend mode="normal" in="SourceGraphic" in2="effect1_dropShadow_21_5621" result="shape"/>
</filter>
</defs>
</svg>
