<svg width="24" height="24" viewBox="0 0 24 24" fill="none" xmlns="http://www.w3.org/2000/svg">
<path d="M19.7156 3.36547L2.24056 8.28735C2.0918 8.32802 1.9592 8.41356 1.86082 8.53231C1.76243 8.65106 1.70304 8.79726 1.69074 8.95099C1.67845 9.10471 1.71383 9.25849 1.79209 9.39138C1.87035 9.52426 1.98766 9.62979 2.12806 9.6936L10.1531 13.4905C10.3103 13.5633 10.4365 13.6895 10.5093 13.8467L14.3062 21.8717C14.37 22.0121 14.4755 22.1294 14.6084 22.2077C14.7413 22.2859 14.8951 22.3213 15.0488 22.309C15.2025 22.2967 15.3487 22.2374 15.4675 22.139C15.5862 22.0406 15.6718 21.908 15.7124 21.7592L20.6343 4.28422C20.6716 4.1567 20.6739 4.0215 20.641 3.89278C20.6081 3.76406 20.5411 3.64657 20.4472 3.55262C20.3532 3.45867 20.2357 3.39172 20.107 3.3588C19.9783 3.32587 19.8431 3.32818 19.7156 3.36547V3.36547Z" stroke="#7B4AE2" stroke-opacity="0.5" stroke-linecap="round" stroke-linejoin="round"/>
<path d="M10.3969 13.6032L14.6344 9.36572" stroke="#7B4AE2" stroke-opacity="0.5" stroke-linecap="round" stroke-linejoin="round"/>
</svg>
