<svg width="46" height="45" viewBox="0 0 46 45" fill="none" xmlns="http://www.w3.org/2000/svg">
<path fill-rule="evenodd" clip-rule="evenodd" d="M44.1951 20.5299L24.5753 0.911162C23.4462 -0.218923 21.6135 -0.218923 20.483 0.911162L16.4089 4.98529L21.577 10.1535C22.7781 9.74772 24.1552 10.0199 25.1127 10.9774C26.0746 11.9408 26.3448 13.3298 25.9292 14.5348L30.9099 19.5157C32.1149 19.1005 33.5053 19.3692 34.4677 20.3331C35.8128 21.6777 35.8128 23.857 34.4677 25.2026C33.1222 26.5481 30.943 26.5481 29.5969 25.2026C28.5852 24.1898 28.3352 22.7038 28.8475 21.4573L24.2025 16.8122L24.202 29.0361C24.5299 29.1988 24.8395 29.4152 25.1127 29.6874C26.4577 31.032 26.4577 33.2113 25.1127 34.5578C23.7671 35.9029 21.5869 35.9029 20.2433 34.5578C18.8983 33.2113 18.8983 31.032 20.2433 29.6874C20.5757 29.3556 20.9602 29.1046 21.3704 28.936V16.5982C20.9602 16.4306 20.5761 16.1811 20.2433 15.8468C19.2242 14.8292 18.9792 13.3337 19.5013 12.0823L14.4071 6.9871L0.954363 20.4392C-0.176194 21.5702 -0.176194 23.4029 0.954363 24.533L20.5742 44.1522C21.7037 45.2823 23.5359 45.2823 24.667 44.1522L44.1951 24.6242C45.3251 23.4936 45.3251 21.66 44.1951 20.5299Z" fill="#7B4AE2" fill-opacity="0.5"/>
</svg>
