<svg width="45" height="40" viewBox="0 0 45 40" fill="none" xmlns="http://www.w3.org/2000/svg">
<path d="M36.9465 12.9519C36.4804 12.7921 35.9974 12.6409 35.5 12.4978C35.5818 12.1655 35.6568 11.8374 35.7235 11.5149C36.8185 6.21964 36.1025 1.95374 33.6578 0.549219C31.3136 -0.797527 27.4798 0.606672 23.6078 3.96362C23.2355 4.28642 22.8621 4.62818 22.4889 4.98637C22.2402 4.74938 21.9919 4.52037 21.7443 4.30132C17.6864 0.711855 13.6189 -0.800794 11.1766 0.607787C8.83459 1.95844 8.14103 5.96879 9.1267 10.9872C9.22188 11.4719 9.33314 11.9669 9.45896 12.4702C8.8833 12.633 8.32756 12.8065 7.79581 12.9911C3.03834 14.6436 0 17.2333 0 19.9195C0 22.6939 3.26166 25.4767 8.21694 27.164C8.60799 27.2971 9.01376 27.423 9.43192 27.5426C9.29619 28.0869 9.17813 28.6203 9.07903 29.1405C8.13919 34.0718 8.87314 37.9874 11.2089 39.3295C13.6215 40.7156 17.6705 39.2909 21.6133 35.8575C21.9249 35.5861 22.2376 35.2982 22.5509 34.9965C22.957 35.3861 23.3625 35.7548 23.7658 36.1007C27.5848 39.3746 31.3567 40.6967 33.6902 39.3508C36.1005 37.9608 36.8838 33.7545 35.8668 28.6369C35.7892 28.246 35.6988 27.8467 35.5973 27.4403C35.8816 27.3566 36.1608 27.2701 36.433 27.1802C41.5844 25.4798 44.9362 22.731 44.9362 19.9195C44.9362 17.2236 41.7998 14.6164 36.9465 12.9519ZM35.8292 25.3649C35.5835 25.446 35.3314 25.5243 35.0745 25.6002C34.5058 23.8066 33.7382 21.8994 32.799 19.9289C33.6953 18.0053 34.4332 16.1224 34.9859 14.3404C35.4456 14.473 35.8918 14.6127 36.3217 14.7602C40.48 16.1863 43.0165 18.2949 43.0165 19.9195C43.0165 21.6501 40.2772 23.8967 35.8292 25.3649ZM33.9836 29.0083C34.4333 31.2712 34.4975 33.3172 34.1997 34.9166C33.932 36.3538 33.3938 37.312 32.7283 37.6958C31.3122 38.5124 28.2838 37.4509 25.0177 34.651C24.6433 34.33 24.2662 33.9873 23.8878 33.6245C25.154 32.245 26.4195 30.6412 27.6545 28.86C29.8269 28.6679 31.8792 28.354 33.7404 27.9254C33.8321 28.2937 33.9135 28.655 33.9836 29.0083ZM15.3198 37.5547C13.9362 38.0414 12.8342 38.0554 12.1681 37.6727C10.7506 36.8583 10.1614 33.7144 10.9652 29.4972C11.0572 29.0142 11.1668 28.5181 11.2931 28.011C13.1339 28.4165 15.1712 28.7083 17.3488 28.8842C18.5921 30.6271 19.8941 32.2292 21.2062 33.632C20.9196 33.9077 20.634 34.1701 20.3501 34.4175C18.6066 35.9357 16.8595 37.0129 15.3198 37.5547ZM8.83779 25.3543C6.64666 24.6083 4.83714 23.6386 3.5968 22.5804C2.48228 21.6296 1.91958 20.6855 1.91958 19.9195C1.91958 18.2894 4.35906 16.2102 8.4277 14.797C8.92137 14.6255 9.43816 14.4639 9.97447 14.3122C10.5368 16.1344 11.2744 18.0395 12.1646 19.9661C11.2629 21.9212 10.5148 23.8567 9.94695 25.7003C9.56462 25.5908 9.19421 25.4756 8.83779 25.3543ZM11.0106 10.6199C10.1661 6.32028 10.727 3.07681 12.1383 2.26291C13.6417 1.39587 16.9659 2.63209 20.4696 5.73141C20.6936 5.92951 20.9184 6.13685 21.1439 6.35136C19.8383 7.74799 18.5482 9.33801 17.3159 11.0707C15.2025 11.2658 13.1795 11.5793 11.3195 11.9991C11.2026 11.5304 11.099 11.07 11.0106 10.6199ZM30.394 15.3881C29.9494 14.623 29.4929 13.876 29.0276 13.1493C30.4613 13.3299 31.835 13.5696 33.125 13.8629C32.7377 15.0994 32.255 16.3923 31.6868 17.7177C31.2792 16.9468 30.848 16.1694 30.394 15.3881ZM22.4895 7.71811C23.375 8.67376 24.2617 9.74074 25.1339 10.8984C24.255 10.857 23.3652 10.8355 22.4681 10.8355C21.5794 10.8355 20.6962 10.8566 19.8228 10.8972C20.6958 9.7503 21.5902 8.68476 22.4895 7.71811ZM14.5344 15.4014C14.0902 16.1686 13.6671 16.9417 13.2659 17.7163C12.7069 16.3955 12.2286 15.0967 11.838 13.8426C13.1201 13.5568 14.4873 13.3231 15.9119 13.146C15.44 13.8793 14.9797 14.6318 14.5344 15.4012V15.4014ZM15.9529 26.8295C14.481 26.6659 13.0933 26.4443 11.8115 26.1663C12.2084 24.8899 12.6972 23.5634 13.268 22.2141C13.6703 22.9881 14.0951 23.7615 14.542 24.5305H14.5421C14.9973 25.3139 15.4688 26.0812 15.9529 26.8295ZM22.5426 32.2558C21.6328 31.2778 20.7253 30.196 19.839 29.0324C20.6994 29.066 21.5766 29.0832 22.4681 29.0832C23.384 29.0832 24.2894 29.0627 25.1806 29.0232C24.3056 30.2078 23.4221 31.2912 22.5426 32.2558ZM31.7051 22.1454C32.3057 23.5092 32.812 24.8287 33.214 26.0834C31.9111 26.3796 30.5044 26.6181 29.0223 26.7953C29.4888 26.0588 29.9492 25.299 30.4017 24.5173C30.8595 23.7265 31.2941 22.9346 31.7051 22.1454ZM28.7389 23.5619C28.0365 24.7753 27.3153 25.9336 26.5832 27.0269C25.2498 27.1219 23.8722 27.1708 22.4681 27.1708C21.0697 27.1708 19.7095 27.1276 18.3996 27.0428C17.638 25.9352 16.9012 24.7734 16.2032 23.5724H16.2034C15.5072 22.3745 14.8666 21.1666 14.286 19.9654C14.8664 18.7615 15.5054 17.5522 16.1975 16.3565L16.1974 16.3568C16.8913 15.1579 17.6217 14.0019 18.3763 12.9011C19.7127 12.8005 21.083 12.7479 22.468 12.7479H22.4681C23.8593 12.7479 25.2314 12.8009 26.5674 12.9024C27.3105 13.9951 28.0359 15.1474 28.7326 16.3464C29.4372 17.5589 30.0844 18.7601 30.6697 19.9383C30.0862 21.1366 29.4404 22.35 28.7389 23.5619ZM32.6989 2.20602C34.2037 3.07051 34.7889 6.55703 33.8434 11.1289C33.7831 11.4206 33.7152 11.7178 33.6415 12.0189C31.7771 11.5904 29.7527 11.2715 27.6332 11.0734C26.3984 9.32168 25.1189 7.72918 23.8346 6.35048C24.1799 6.01955 24.5247 5.704 24.8681 5.40622C28.1855 2.53001 31.2862 1.39443 32.6989 2.20602ZM22.4681 15.922C24.6842 15.922 26.4807 17.7117 26.4807 19.9195C26.4807 22.1273 24.6842 23.9171 22.4681 23.9171C20.252 23.9171 18.4554 22.1273 18.4554 19.9195C18.4554 17.7117 20.252 15.922 22.4681 15.922Z" fill="#7B4AE2" fill-opacity="0.5"/>
</svg>
