<svg width="46" height="45" viewBox="0 0 46 45" fill="none" xmlns="http://www.w3.org/2000/svg">
<path fill-rule="evenodd" clip-rule="evenodd" d="M23.1704 1.11707C11.054 1.11707 1.22876 10.9405 1.22876 23.0587C1.22876 32.7531 7.51572 40.9778 16.2338 43.8791C17.3304 44.0822 17.733 43.4031 17.733 42.8236C17.733 42.3004 17.7126 40.572 17.7032 38.7385C11.599 40.0658 10.3109 36.1497 10.3109 36.1497C9.31282 33.6135 7.8747 32.9392 7.8747 32.9392C5.88393 31.5774 8.02476 31.6053 8.02476 31.6053C10.2281 31.7601 11.3882 33.8664 11.3882 33.8664C13.3452 37.2208 16.5212 36.2511 17.7733 35.6904C17.9702 34.2723 18.5389 33.3043 19.1664 32.7564C14.2928 32.2016 9.16966 30.3202 9.16966 21.9127C9.16966 19.5172 10.0268 17.5599 11.4304 16.0233C11.2026 15.4706 10.4515 13.239 11.643 10.2167C11.643 10.2167 13.4855 9.62697 17.6785 12.4658C19.4287 11.9796 21.3057 11.7358 23.1704 11.7275C25.0351 11.7358 26.9136 11.9796 28.6671 12.4658C32.855 9.62697 34.695 10.2167 34.695 10.2167C35.8893 13.239 35.1379 15.4706 34.9101 16.0233C36.317 17.5599 37.1683 19.5172 37.1683 21.9127C37.1683 30.3402 32.0353 32.1958 27.1494 32.739C27.9364 33.4199 28.6377 34.7552 28.6377 36.8023C28.6377 39.7381 28.6122 42.1009 28.6122 42.8236C28.6122 43.4075 29.0072 44.0917 30.1194 43.8762C38.8328 40.9716 45.1117 32.7499 45.1117 23.0587C45.1117 10.9405 35.288 1.11707 23.1704 1.11707ZM9.44663 32.3734C9.3983 32.4824 9.22681 32.5151 9.07057 32.4403C8.91142 32.3687 8.82204 32.2201 8.87363 32.1107C8.92087 31.9985 9.09273 31.9672 9.25151 32.0424C9.41102 32.114 9.50186 32.2641 9.44663 32.3734ZM10.5259 33.3365C10.4213 33.4335 10.2167 33.3884 10.0779 33.2351C9.93439 33.0821 9.9075 32.8776 10.0136 32.7791C10.1215 32.6821 10.3199 32.7275 10.4638 32.8805C10.6073 33.0353 10.6353 33.2384 10.5259 33.3365ZM11.2663 34.5686C11.1319 34.662 10.9121 34.5744 10.7762 34.3793C10.6418 34.1842 10.6418 33.9502 10.7791 33.8565C10.9154 33.7627 11.1319 33.847 11.2696 34.0407C11.4037 34.2391 11.4037 34.4731 11.2663 34.5686ZM12.5186 35.9957C12.3983 36.1283 12.1421 36.0927 11.9547 35.9117C11.7628 35.7348 11.7094 35.4837 11.83 35.3511C11.9518 35.2181 12.2094 35.2555 12.3983 35.435C12.5887 35.6116 12.6468 35.8645 12.5186 35.9957ZM14.137 36.4774C14.0839 36.6493 13.8372 36.7274 13.5887 36.6544C13.3405 36.5791 13.1781 36.3779 13.2282 36.2042C13.2798 36.0312 13.5276 35.9498 13.778 36.028C14.0258 36.1028 14.1886 36.3026 14.137 36.4774ZM15.9787 36.6818C15.9849 36.8627 15.7742 37.0128 15.5133 37.016C15.251 37.0218 15.0388 36.8754 15.0359 36.6974C15.0359 36.5146 15.2419 36.366 15.5042 36.3616C15.7651 36.3566 15.9787 36.5019 15.9787 36.6818ZM17.7881 36.6124C17.8193 36.789 17.638 36.9703 17.379 37.0186C17.1243 37.0651 16.8885 36.9561 16.8561 36.781C16.8245 36.6 17.0091 36.4187 17.2634 36.3719C17.5229 36.3268 17.755 36.4329 17.7881 36.6124Z" fill="#7B4AE2" fill-opacity="0.5"/>
</svg>
