<svg width="46" height="45" viewBox="0 0 46 45" fill="none" xmlns="http://www.w3.org/2000/svg">
<g clip-path="url(#clip0_21_5618)">
<path fill-rule="evenodd" clip-rule="evenodd" d="M42.2341 -0.000244141H4.31917C2.3803 -0.000244141 0.808533 1.57152 0.808533 3.51039V41.4253C0.808533 43.3642 2.3803 44.9359 4.31917 44.9359H42.2341C44.1729 44.9359 45.7447 43.3642 45.7447 41.4253V3.51039C45.7447 1.57152 44.1729 -0.000244141 42.2341 -0.000244141ZM27.2292 40.0377V35.1895C28.1087 35.9269 29.0639 36.4798 30.0952 36.8485C31.1262 37.2173 32.1673 37.4016 33.2186 37.4016C33.8352 37.4016 34.3736 37.3459 34.8335 37.2348C35.2934 37.1237 35.6776 36.9698 35.9858 36.7728C36.2941 36.5759 36.5242 36.3435 36.6757 36.076C36.8273 35.8083 36.9032 35.5178 36.9032 35.2048C36.9032 34.7805 36.7819 34.4017 36.5393 34.0684C36.2967 33.7351 35.9656 33.427 35.5461 33.1442C35.1266 32.8614 34.6288 32.5888 34.0525 32.3262C33.4764 32.0635 32.8547 31.796 32.1875 31.5232C30.4892 30.8161 29.2233 29.9525 28.3893 28.9325C27.5552 27.9123 27.1383 26.6801 27.1383 25.2358C27.1383 24.1045 27.3658 23.1324 27.8206 22.3193C28.2756 21.5063 28.8947 20.8371 29.6781 20.3118C30.4615 19.7866 31.3688 19.4002 32.3999 19.1529C33.431 18.9054 34.5226 18.7817 35.675 18.7817C36.8071 18.7817 37.8105 18.8498 38.6848 18.9862C39.5591 19.1226 40.3654 19.3321 41.1033 19.6149V24.1449C40.7394 23.8925 40.3425 23.6702 39.913 23.4784C39.4833 23.2863 39.0411 23.1273 38.5863 23.0011C38.1314 22.8747 37.679 22.7813 37.2291 22.7208C36.7794 22.6602 36.3523 22.6299 35.9479 22.6299C35.392 22.6299 34.8865 22.6829 34.4317 22.7889C33.9767 22.8951 33.5926 23.0439 33.2793 23.236C32.966 23.4278 32.7232 23.6576 32.5514 23.9253C32.3795 24.193 32.2937 24.4933 32.2937 24.8266C32.2937 25.1903 32.3897 25.516 32.5817 25.8038C32.7738 26.0917 33.0467 26.3645 33.4006 26.622C33.7543 26.8797 34.184 27.1321 34.6894 27.3796C35.1949 27.6271 35.7659 27.8819 36.4027 28.1447C37.2721 28.5082 38.0531 28.8946 38.7455 29.3036C39.4378 29.7127 40.0318 30.1747 40.527 30.6899C41.0224 31.2049 41.4015 31.7933 41.6643 32.4549C41.9271 33.1165 42.0585 33.8867 42.0585 34.7654C42.0585 35.9775 41.8286 36.995 41.3687 37.8181C40.9086 38.6414 40.2844 39.308 39.4959 39.8181C38.7076 40.328 37.7901 40.6942 36.744 40.9164C35.6978 41.1386 34.5933 41.2498 33.431 41.2498C32.238 41.2498 31.1034 41.1488 30.0269 40.9468C28.9503 40.7447 28.0177 40.4418 27.2292 40.0377ZM25.383 23.1247H19.1485V40.8987H14.2095V23.1247H8.00534V19.1327H25.383V23.1247Z" fill="#7B4AE2" fill-opacity="0.5"/>
</g>
<defs>
<clipPath id="clip0_21_5618">
<rect width="44.9362" height="44.9362" fill="white" transform="translate(0.808533 -0.000244141)"/>
</clipPath>
</defs>
</svg>
