<svg width="24" height="26" viewBox="0 0 24 26" fill="none" xmlns="http://www.w3.org/2000/svg">
<g filter="url(#filter0_d_21_5426)">
<path d="M5.54684 13.8281C4.61628 12.2581 4.29079 10.4025 4.63146 8.60949C4.97213 6.81652 5.95553 5.20954 7.39706 4.09025C8.83859 2.97096 10.6391 2.41633 12.4606 2.53049C14.2821 2.64464 15.9992 3.41972 17.2897 4.71023C18.5802 6.00073 19.3553 7.71791 19.4695 9.53939C19.5836 11.3609 19.029 13.1614 17.9097 14.6029C16.7904 16.0444 15.1834 17.0278 13.3905 17.3685C11.5975 17.7092 9.74183 17.3837 8.17184 16.4531V16.4531L5.57809 17.1875C5.47182 17.2186 5.35915 17.2205 5.25189 17.1931C5.14462 17.1656 5.04671 17.1098 4.96842 17.0315C4.89013 16.9533 4.83434 16.8553 4.8069 16.7481C4.77946 16.6408 4.78139 16.5281 4.81247 16.4219L5.54684 13.8281Z" stroke="#7B4AE2" stroke-opacity="0.5" stroke-linecap="round" stroke-linejoin="round"/>
<path d="M13.8828 14.375C13.0605 14.3771 12.2458 14.2166 11.4856 13.9029C10.7255 13.5891 10.0348 13.1282 9.45329 12.5467C8.87179 11.9652 8.41092 11.2745 8.09717 10.5144C7.78341 9.75422 7.62296 8.93956 7.62502 8.11719C7.62709 7.53838 7.85847 6.98399 8.26848 6.57544C8.67849 6.16689 9.23371 5.9375 9.81252 5.9375V5.9375C9.90802 5.93674 10.002 5.96173 10.0844 6.00985C10.1669 6.05797 10.2349 6.12744 10.2813 6.21094L11.1953 7.80469C11.2497 7.90157 11.2776 8.01106 11.2762 8.12214C11.2748 8.23323 11.2443 8.34199 11.1875 8.4375L10.4531 9.66406C10.8293 10.5009 11.4992 11.1707 12.336 11.5469L13.5625 10.8125C13.658 10.7558 13.7668 10.7252 13.8779 10.7238C13.989 10.7224 14.0984 10.7503 14.1953 10.8047L15.7891 11.7188C15.8726 11.7651 15.942 11.8331 15.9902 11.9156C16.0383 11.9981 16.0633 12.092 16.0625 12.1875C16.0605 12.7657 15.8304 13.3197 15.4223 13.7293C15.0142 14.1389 14.461 14.3709 13.8828 14.375V14.375Z" stroke="#7B4AE2" stroke-opacity="0.5" stroke-linecap="round" stroke-linejoin="round"/>
</g>
<defs>
<filter id="filter0_d_21_5426" x="-0.000244141" y="2.01581" width="23.9844" height="23.9844" filterUnits="userSpaceOnUse" color-interpolation-filters="sRGB">
<feFlood flood-opacity="0" result="BackgroundImageFix"/>
<feColorMatrix in="SourceAlpha" type="matrix" values="0 0 0 0 0 0 0 0 0 0 0 0 0 0 0 0 0 0 127 0" result="hardAlpha"/>
<feOffset dy="4"/>
<feGaussianBlur stdDeviation="2"/>
<feComposite in2="hardAlpha" operator="out"/>
<feColorMatrix type="matrix" values="0 0 0 0 0 0 0 0 0 0 0 0 0 0 0 0 0 0 0.25 0"/>
<feBlend mode="normal" in2="BackgroundImageFix" result="effect1_dropShadow_21_5426"/>
<feBlend mode="normal" in="SourceGraphic" in2="effect1_dropShadow_21_5426" result="shape"/>
</filter>
</defs>
</svg>
