<svg width="320" height="311" viewBox="0 0 320 311" fill="none" xmlns="http://www.w3.org/2000/svg">
<g clip-path="url(#clip0_20_231)">
<path d="M279.356 270.566C276.756 270.869 274.141 270.821 271.548 270.424C243.043 266.154 204.226 267.369 172.583 293.934C128.822 330.667 60.24 299.22 29.9872 282.112C6.87189 269.045 -5.12834 237.041 2.07969 207C2.18117 206.576 2.28547 206.152 2.39541 205.728C6.93109 187.875 15.884 173.903 26.9709 166.497C36.6342 160.041 50.743 146.562 57.0208 120.661C59.6142 109.966 63.1717 99.9056 67.792 91.1358C80.1643 67.649 106.065 32.6729 150.61 32.8906C158.42 32.9419 166.171 34.7197 173.559 38.154C189.832 45.6672 204.53 60.9418 215.738 82.1177C222.89 95.6238 233.608 108.179 248.951 109.202C270.245 110.631 290.567 124.065 305.812 147.971C306.252 148.659 306.686 149.35 307.12 150.049C334.264 193.864 315.41 266.295 279.356 270.566Z" fill="#6C63FF"/>
<g opacity="0.7">
<path opacity="0.7" d="M78.2141 266.269C80.3626 266.269 82.1042 263.909 82.1042 260.998C82.1042 258.086 80.3626 255.727 78.2141 255.727C76.0656 255.727 74.324 258.086 74.324 260.998C74.324 263.909 76.0656 266.269 78.2141 266.269Z" fill="url(#paint0_linear_20_231)"/>
</g>
<path opacity="0.2" d="M78.2144 266.032C80.2663 266.032 81.9297 263.778 81.9297 260.998C81.9297 258.217 80.2663 255.963 78.2144 255.963C76.1624 255.963 74.499 258.217 74.499 260.998C74.499 263.778 76.1624 266.032 78.2144 266.032Z" fill="black"/>
<path d="M57.2555 160.133C58.0495 160.133 58.6932 159.261 58.6932 158.185C58.6932 157.109 58.0495 156.237 57.2555 156.237C56.4615 156.237 55.8179 157.109 55.8179 158.185C55.8179 159.261 56.4615 160.133 57.2555 160.133Z" fill="white"/>
<path d="M159.865 273.194C160.659 273.194 161.302 272.322 161.302 271.246C161.302 270.17 160.659 269.298 159.865 269.298C159.071 269.298 158.427 270.17 158.427 271.246C158.427 272.322 159.071 273.194 159.865 273.194Z" fill="white"/>
<path d="M99.2575 282.265C99.7012 282.265 100.061 281.778 100.061 281.177C100.061 280.575 99.7012 280.088 99.2575 280.088C98.8138 280.088 98.4541 280.575 98.4541 281.177C98.4541 281.778 98.8138 282.265 99.2575 282.265Z" fill="white"/>
<path d="M277.132 229.555C277.576 229.555 277.936 229.067 277.936 228.466C277.936 227.865 277.576 227.377 277.132 227.377C276.689 227.377 276.329 227.865 276.329 228.466C276.329 229.067 276.689 229.555 277.132 229.555Z" fill="white"/>
<path d="M231.184 131.773C231.627 131.773 231.987 131.285 231.987 130.684C231.987 130.083 231.627 129.595 231.184 129.595C230.74 129.595 230.38 130.083 230.38 130.684C230.38 131.285 230.74 131.773 231.184 131.773Z" fill="white"/>
<path d="M296.301 179.518C296.745 179.518 297.105 179.03 297.105 178.429C297.105 177.828 296.745 177.341 296.301 177.341C295.857 177.341 295.498 177.828 295.498 178.429C295.498 179.03 295.857 179.518 296.301 179.518Z" fill="white"/>
<path d="M82.6259 96.3458C83.4199 96.3458 84.0635 95.4737 84.0635 94.3978C84.0635 93.322 83.4199 92.4498 82.6259 92.4498C81.8319 92.4498 81.1882 93.322 81.1882 94.3978C81.1882 95.4737 81.8319 96.3458 82.6259 96.3458Z" fill="white"/>
<path d="M43.1128 226.201H41.833V224.467H41.3115V226.201H40.0317V226.908H41.3115V228.638H41.833V226.908H43.1128V226.201Z" fill="white"/>
<path d="M75.2488 225.437H73.969V223.703H73.4475V225.437H72.1677V226.144H73.4475V227.874H73.969V226.144H75.2488V225.437Z" fill="white"/>
<path d="M121.197 260.577H119.918V258.843H119.396V260.577H118.116V261.284H119.396V263.014H119.918V261.284H121.197V260.577Z" fill="white"/>
<path d="M185.196 49.926H184.612V49.1354H184.376V49.926H183.792V50.2469H184.376V51.0375H184.612V50.2469H185.196V49.926Z" fill="white"/>
<path d="M268.354 122.499H267.771V121.708H267.534V122.499H266.951V122.82H267.534V123.61H267.771V122.82H268.354V122.499Z" fill="white"/>
<path d="M219.305 169.862H218.721V169.071H218.484V169.862H217.901V170.182H218.484V170.973H218.721V170.182H219.305V169.862Z" fill="white"/>
<path d="M19.7241 199.655H19.1406V198.864H18.9038V199.655H18.3203V199.975H18.9038V200.766H19.1406V199.975H19.7241V199.655Z" fill="white"/>
<path d="M43.6851 264.588H43.1016V263.797H42.8648V264.588H42.2812V264.909H42.8648V265.699H43.1016V264.909H43.6851V264.588Z" fill="white"/>
<path d="M118.951 59.4751H118.367V58.6844H118.13V59.4751H117.547V59.796H118.13V60.5866H118.367V59.796H118.951V59.4751Z" fill="white"/>
<path d="M83.4322 173.681H82.8486V172.891H82.6118V173.681H82.0283V174.002H82.6118V174.793H82.8486V174.002H83.4322V173.681Z" fill="white"/>
<path d="M91.0432 140.833H90.4597V140.042H90.2229V140.833H89.6394V141.153H90.2229V141.944H90.4597V141.153H91.0432V140.833Z" fill="white"/>
<g opacity="0.7">
<path opacity="0.7" d="M210.899 216.637C212.692 216.637 214.146 214.667 214.146 212.236C214.146 209.806 212.692 207.836 210.899 207.836C209.105 207.836 207.651 209.806 207.651 212.236C207.651 214.667 209.105 216.637 210.899 216.637Z" fill="url(#paint1_linear_20_231)"/>
</g>
<path opacity="0.2" d="M210.899 216.312C212.56 216.312 213.907 214.487 213.907 212.236C213.907 209.985 212.56 208.161 210.899 208.161C209.238 208.161 207.891 209.985 207.891 212.236C207.891 214.487 209.238 216.312 210.899 216.312Z" fill="black"/>
<path opacity="0.2" d="M218.998 245.482C220.855 245.482 222.361 243.442 222.361 240.926C222.361 238.409 220.855 236.369 218.998 236.369C217.14 236.369 215.635 238.409 215.635 240.926C215.635 243.442 217.14 245.482 218.998 245.482Z" fill="black"/>
<g opacity="0.7">
<path opacity="0.7" d="M188.86 117.275C188.883 107.702 187.191 98.2649 183.927 89.7743C182.379 85.7866 180.967 83.3115 179.879 81.7875C179.463 81.1925 178.921 80.7892 178.327 80.6344C177.733 80.4795 177.119 80.5809 176.57 80.9243C176.131 81.1352 175.734 81.4817 175.411 81.9365C173.942 83.999 172.615 86.7262 171.465 89.6253C168.033 98.3183 166.254 108.032 166.286 117.89V123.803H163.487V55.0465C163.487 40.6389 161.108 26.4262 156.44 13.8215C154.23 7.84763 152.211 4.13497 150.664 1.85467C150.288 1.27435 149.825 0.80938 149.306 0.490834C148.787 0.172288 148.224 0.00750732 147.654 0.00750732C147.085 0.00750732 146.522 0.172288 146.003 0.490834C145.484 0.80938 145.021 1.27435 144.645 1.85467C142.548 4.94473 140.654 9.0317 139.007 13.3746C134.105 26.2543 131.616 40.8757 131.616 55.7034V123.776H129.197V117.577C129.228 107.725 127.449 98.0183 124.019 89.3312C122.86 86.4321 121.533 83.7049 120.073 81.6423C119.648 81.032 119.091 80.6218 118.482 80.4719C117.874 80.3221 117.245 80.4404 116.69 80.8097L116.791 80.8822C116.437 81.0957 116.117 81.3991 115.847 81.776C114.762 83.3039 113.349 85.7752 111.802 89.7628C108.538 98.2534 106.845 107.691 106.869 117.264V220.011H115.506L114.553 228.456V253.715H121.617V228.456L120.673 220.007H129.186V126.427H131.605V219.603H138.503L137.513 228.456V253.715H144.578V228.456L143.588 219.591H152.891L151.896 228.456V253.715H158.96V228.456L157.97 219.591H163.479V126.439H166.278V220.16H168.547V220.019H176.051L175.109 228.456V253.715H182.174V228.456L181.229 220.007H188.86V117.275Z" fill="url(#paint2_linear_20_231)"/>
</g>
<path d="M123.018 223.543H116.329L117.524 212.538H121.823L123.018 223.543Z" fill="#535461"/>
<g opacity="0.1">
<path opacity="0.1" d="M117.192 216.908H122.156L121.823 213.833H117.524L117.192 216.908Z" fill="black"/>
</g>
<path d="M180.342 223.543H173.655L174.847 212.538H179.149L180.342 223.543Z" fill="#535461"/>
<g opacity="0.1">
<path opacity="0.1" d="M174.515 216.908H179.482L179.149 213.833H174.848L174.515 216.908Z" fill="black"/>
</g>
<path d="M144.752 223.543H138.066L139.258 212.538H143.56L144.752 223.543Z" fill="#535461"/>
<g opacity="0.1">
<path opacity="0.1" d="M138.926 216.908H143.892L143.56 213.833H139.258L138.926 216.908Z" fill="black"/>
</g>
<path d="M158.368 223.543H151.681L152.874 212.538H157.172L158.368 223.543Z" fill="#535461"/>
<g opacity="0.1">
<path opacity="0.1" d="M152.541 216.908H157.508L157.172 213.833H152.874L152.541 216.908Z" fill="black"/>
</g>
<path d="M170.788 121.597H123.018V124.187H170.788V121.597Z" fill="#535461"/>
<path d="M178.171 80.6969C177.918 80.3191 177.61 80.0172 177.267 79.8105C176.923 79.6039 176.551 79.4971 176.175 79.4971C175.799 79.4971 175.427 79.6039 175.083 79.8105C174.739 80.0172 174.431 80.3191 174.179 80.6969C172.789 82.706 171.532 85.3606 170.436 88.1833C167.183 96.6776 165.501 106.115 165.533 115.684V215.315H186.675V115.264C186.702 105.96 185.101 96.7786 182.004 88.4736C180.536 84.5928 179.2 82.1636 178.171 80.6969Z" fill="#E0E0E0"/>
<path d="M117.544 80.6969C117.796 80.3191 118.104 80.0172 118.448 79.8105C118.792 79.6039 119.164 79.4971 119.54 79.4971C119.916 79.4971 120.288 79.6039 120.631 79.8105C120.975 80.0172 121.283 80.3191 121.536 80.6969C122.928 82.706 124.183 85.3606 125.282 88.1833C128.533 96.6783 130.216 106.115 130.184 115.684V215.315H109.042V115.264C109.016 105.96 110.616 96.7786 113.713 88.4736C115.179 84.5928 116.515 82.1636 117.544 80.6969Z" fill="#E0E0E0"/>
<path d="M109.163 117.388L114.181 117.422V125.803H109.163V117.388Z" fill="#535461"/>
<path d="M125.166 117.388L130.184 117.422V125.803H125.166V117.388Z" fill="#535461"/>
<path d="M165.533 117.388L170.548 117.422V125.803H165.533V117.388Z" fill="#535461"/>
<path d="M181.537 117.388L186.552 117.422V125.803H181.537V117.388Z" fill="#535461"/>
<g opacity="0.1">
<path opacity="0.1" d="M125.282 88.0533C124.182 85.2306 122.928 82.576 121.535 80.5669C121.142 79.9761 120.617 79.5766 120.04 79.4296C119.463 79.2826 118.866 79.3964 118.342 79.7533C118.644 79.9577 118.917 80.2331 119.148 80.5669C120.538 82.576 121.795 85.2306 122.891 88.0533C126.144 96.5475 127.826 105.985 127.793 115.554V215.177H130.184V115.558C130.216 105.988 128.534 96.5494 125.282 88.0533V88.0533Z" fill="black"/>
</g>
<g opacity="0.1">
<path opacity="0.1" d="M172.347 88.3283C173.443 85.5056 174.701 82.851 176.09 80.8419C176.35 80.4614 176.665 80.1572 177.015 79.9481C176.498 79.6417 175.924 79.5632 175.372 79.7236C174.821 79.884 174.321 80.2752 173.942 80.8419C172.55 82.851 171.293 85.5056 170.196 88.3283C166.945 96.8233 165.262 106.26 165.294 115.83V215.468H167.445V115.837C167.411 106.265 169.093 96.8249 172.347 88.3283V88.3283Z" fill="black"/>
</g>
<path d="M119.765 248.141H119.582C118.719 248.141 117.892 247.676 117.282 246.85C116.672 246.023 116.329 244.902 116.329 243.733V223.543H123.018V243.733C123.018 244.902 122.675 246.023 122.065 246.85C121.455 247.676 120.628 248.141 119.765 248.141Z" fill="url(#paint3_linear_20_231)"/>
<path d="M141.502 248.141H141.316C140.454 248.14 139.627 247.675 139.018 246.848C138.408 246.022 138.066 244.901 138.066 243.733V223.543H144.752V243.733C144.752 244.901 144.41 246.022 143.801 246.848C143.191 247.675 142.364 248.14 141.502 248.141Z" fill="url(#paint4_linear_20_231)"/>
<path d="M155.115 248.141H154.926C154.064 248.138 153.239 247.672 152.631 246.846C152.023 246.019 151.681 244.9 151.681 243.733V223.543H158.368V243.733C158.368 244.902 158.025 246.023 157.415 246.85C156.805 247.676 155.977 248.141 155.115 248.141Z" fill="url(#paint5_linear_20_231)"/>
<path d="M177.091 248.141H176.914C176.486 248.142 176.062 248.029 175.667 247.808C175.272 247.586 174.912 247.262 174.61 246.853C174.307 246.443 174.067 245.957 173.903 245.422C173.739 244.886 173.655 244.313 173.655 243.733V223.543H180.342V243.733C180.342 244.901 179.999 246.022 179.39 246.849C178.78 247.675 177.954 248.14 177.091 248.141Z" fill="url(#paint6_linear_20_231)"/>
<path d="M150.512 2.57821C150.162 2.01512 149.726 1.5624 149.234 1.25181C148.742 0.941215 148.206 0.780273 147.663 0.780273C147.12 0.780273 146.584 0.941215 146.092 1.25181C145.6 1.5624 145.164 2.01512 144.814 2.57821C142.841 5.58806 141.037 9.56427 139.459 13.7964C134.819 26.34 132.462 40.5795 132.462 55.0176V214.91H162.624V54.3759C162.624 40.3465 160.369 26.4928 155.961 14.2318C153.889 8.41457 151.98 4.7974 150.512 2.57821Z" fill="#EEEEEE"/>
<path d="M152.118 20.3394H142.579C140.866 20.3394 139.478 22.2205 139.478 24.541V25.9122C139.478 28.2327 140.866 30.1138 142.579 30.1138H152.118C153.831 30.1138 155.219 28.2327 155.219 25.9122V24.541C155.219 22.2205 153.831 20.3394 152.118 20.3394Z" fill="#535461"/>
<g opacity="0.1">
<path opacity="0.1" d="M162.481 60.4835H132.625V62.0533H162.481V60.4835Z" fill="black"/>
</g>
<path d="M214.532 118.916C213.749 117.523 212.77 116.354 211.651 115.478V115.478C210.366 114.474 208.927 113.883 207.446 113.753C205.965 113.622 204.482 113.954 203.111 114.724C201.741 115.494 200.519 116.681 199.54 118.193C198.562 119.705 197.854 121.501 197.469 123.443C197.085 125.386 197.036 127.421 197.325 129.393C197.614 131.366 198.235 133.221 199.138 134.817C200.04 136.412 201.202 137.705 202.533 138.595C203.863 139.485 205.327 139.949 206.811 139.95C207.017 139.95 207.223 139.95 207.423 139.92C209.167 139.771 210.848 138.984 212.289 137.644C213.73 136.304 214.876 134.46 215.605 132.308C216.335 130.157 216.62 127.777 216.432 125.423C216.243 123.069 215.588 120.828 214.535 118.939L214.532 118.916Z" fill="url(#paint7_linear_20_231)"/>
<path opacity="0.2" d="M215.956 126.815C215.956 129.966 215.069 132.999 213.477 135.296C211.886 137.594 209.708 138.983 207.386 139.183C207.198 139.183 207.003 139.209 206.809 139.209C205.405 139.21 204.019 138.774 202.76 137.933C201.5 137.092 200.4 135.87 199.545 134.361C198.69 132.852 198.103 131.097 197.829 129.231C197.555 127.365 197.601 125.439 197.965 123.601C198.328 121.764 198.999 120.064 199.925 118.634C200.851 117.204 202.007 116.082 203.305 115.354C204.602 114.627 206.005 114.314 207.406 114.439C208.807 114.565 210.168 115.125 211.384 116.078V116.078C212.443 116.911 213.369 118.022 214.107 119.347V119.347C215.309 121.496 215.958 124.119 215.956 126.815Z" fill="black"/>
<path opacity="0.1" d="M204.556 118.95C204.083 119.226 203.627 119.552 203.192 119.924C202.901 120.139 202.651 120.443 202.462 120.81C202.368 120.996 202.316 121.214 202.313 121.439C202.31 121.664 202.356 121.885 202.445 122.075C202.667 122.487 203.096 122.548 203.474 122.579C203.87 122.647 204.273 122.592 204.652 122.418C204.908 122.247 205.14 122.018 205.34 121.742L206.126 120.776C206.408 120.44 206.69 119.978 206.58 119.504C206.515 119.335 206.42 119.19 206.303 119.084C206.187 118.977 206.052 118.911 205.912 118.893C205.234 118.714 204.531 118.881 203.939 119.363" fill="black"/>
<g opacity="0.1">
<path opacity="0.1" d="M201.272 132.361C201.538 132.361 201.754 132.068 201.754 131.708C201.754 131.347 201.538 131.055 201.272 131.055C201.006 131.055 200.79 131.347 200.79 131.708C200.79 132.068 201.006 132.361 201.272 132.361Z" fill="black"/>
</g>
<g opacity="0.1">
<path opacity="0.1" d="M211.06 129.966C212.034 129.966 212.824 128.895 212.824 127.575C212.824 126.254 212.034 125.184 211.06 125.184C210.085 125.184 209.295 126.254 209.295 127.575C209.295 128.895 210.085 129.966 211.06 129.966Z" fill="black"/>
</g>
<g opacity="0.1">
<path opacity="0.1" d="M214.123 119.347C214.118 119.973 213.981 120.583 213.727 121.105C213.473 121.627 213.114 122.039 212.692 122.293C212.271 122.546 211.804 122.63 211.348 122.535C210.892 122.439 210.466 122.168 210.121 121.754C209.775 121.339 209.525 120.799 209.399 120.197C209.274 119.596 209.279 118.958 209.413 118.36C209.548 117.762 209.807 117.229 210.158 116.824C210.51 116.42 210.94 116.161 211.398 116.078V116.078C212.458 116.91 213.385 118.022 214.123 119.347Z" fill="black"/>
</g>
<g opacity="0.1">
<path opacity="0.1" d="M214.287 133.95C213.5 135.468 212.471 136.726 211.277 137.632C210.082 138.538 208.753 139.068 207.386 139.183C207.386 139.011 207.369 138.839 207.369 138.663C207.37 137.576 207.594 136.509 208.015 135.584C208.437 134.658 209.04 133.909 209.757 133.421C210.474 132.932 211.278 132.723 212.077 132.816C212.877 132.91 213.642 133.302 214.287 133.95V133.95Z" fill="black"/>
</g>
<path d="M89.5745 189.674C89.0286 188.696 88.3444 187.876 87.5618 187.26V187.26C86.6635 186.546 85.6557 186.123 84.6168 186.023C83.578 185.923 82.5362 186.15 81.5725 186.685C80.6089 187.22 79.7494 188.049 79.0611 189.108C78.3728 190.167 77.8742 191.427 77.6042 192.79C77.3341 194.153 77.3 195.582 77.5043 196.966C77.7087 198.349 78.146 199.651 78.7823 200.768C79.4186 201.885 80.2366 202.788 81.1727 203.406C82.1088 204.025 83.1376 204.342 84.179 204.334C84.3228 204.334 84.4609 204.334 84.6075 204.315C85.8221 204.204 86.9921 203.651 87.9943 202.715C88.9964 201.778 89.7934 200.493 90.3014 198.994C90.8094 197.495 91.0095 195.838 90.8805 194.197C90.7516 192.557 90.2984 190.995 89.5688 189.674H89.5745Z" fill="url(#paint8_linear_20_231)"/>
<path opacity="0.2" d="M90.5668 195.186C90.5665 197.384 89.9481 199.5 88.8374 201.103C87.7267 202.706 86.2072 203.675 84.5878 203.814C84.4553 203.814 84.3059 203.814 84.1847 203.814C83.2059 203.814 82.2403 203.508 81.3625 202.922C80.4848 202.335 79.7184 201.482 79.1226 200.43C78.5268 199.378 78.1177 198.154 77.9268 196.853C77.7359 195.552 77.7683 194.209 78.0216 192.928C78.2749 191.647 78.7423 190.462 79.3876 189.465C80.0329 188.468 80.8388 187.685 81.7431 187.178C82.6473 186.67 83.6256 186.451 84.6023 186.537C85.579 186.624 86.528 187.013 87.3758 187.676V187.676C88.116 188.26 88.7621 189.039 89.2757 189.968C90.1161 191.469 90.5697 193.302 90.5668 195.186V195.186Z" fill="black"/>
<path opacity="0.1" d="M82.6116 189.701C82.2819 189.891 81.9642 190.117 81.6616 190.377C81.4598 190.529 81.2856 190.741 81.1514 190.996C81.0887 191.127 81.0554 191.28 81.0554 191.437C81.0554 191.593 81.0887 191.746 81.1514 191.878C81.2449 192.003 81.3574 192.099 81.481 192.16C81.6046 192.221 81.7364 192.244 81.8674 192.229C82.1444 192.278 82.4259 192.24 82.6905 192.119C82.8697 191.999 83.0327 191.838 83.1725 191.645L83.7194 190.973C83.9111 190.736 84.1197 190.415 84.0351 190.086C83.992 189.966 83.9263 189.863 83.8447 189.788C83.7631 189.713 83.6684 189.669 83.57 189.659C83.0982 189.533 82.6088 189.651 82.1972 189.987" fill="black"/>
<g opacity="0.1">
<path opacity="0.1" d="M80.3201 199.051C80.5053 199.051 80.6555 198.848 80.6555 198.597C80.6555 198.346 80.5053 198.142 80.3201 198.142C80.1348 198.142 79.9846 198.346 79.9846 198.597C79.9846 198.848 80.1348 199.051 80.3201 199.051Z" fill="black"/>
</g>
<g opacity="0.1">
<path opacity="0.1" d="M87.1501 197.386C87.8304 197.386 88.382 196.639 88.382 195.717C88.382 194.795 87.8304 194.047 87.1501 194.047C86.4697 194.047 85.9182 194.795 85.9182 195.717C85.9182 196.639 86.4697 197.386 87.1501 197.386Z" fill="black"/>
</g>
<g opacity="0.1">
<path opacity="0.1" d="M89.2787 189.976C89.2761 190.416 89.18 190.846 89.0019 191.214C88.8237 191.583 88.5711 191.873 88.2742 192.052C87.9772 192.231 87.6486 192.29 87.3275 192.222C87.0064 192.155 86.7065 191.963 86.4637 191.671C86.2208 191.378 86.0453 190.997 85.9581 190.573C85.8708 190.149 85.8756 189.7 85.9719 189.279C86.0681 188.859 86.2517 188.485 86.5007 188.202C86.7496 187.919 87.0535 187.739 87.3759 187.684C88.1172 188.267 88.7643 189.047 89.2787 189.976V189.976Z" fill="black"/>
</g>
<g opacity="0.1">
<path opacity="0.1" d="M89.4024 200.163C88.8533 201.222 88.1355 202.1 87.3021 202.732C86.4686 203.364 85.5409 203.734 84.5876 203.814C84.5876 203.696 84.5876 203.574 84.5876 203.432C84.5882 202.673 84.7441 201.93 85.0382 201.284C85.3324 200.638 85.753 200.115 86.2534 199.774C86.7537 199.433 87.3141 199.287 87.8721 199.353C88.4301 199.418 88.9638 199.692 89.4137 200.144L89.4024 200.163Z" fill="black"/>
</g>
<path d="M269.18 164.27C269.467 164.27 269.699 163.955 269.699 163.567C269.699 163.179 269.467 162.864 269.18 162.864C268.894 162.864 268.662 163.179 268.662 163.567C268.662 163.955 268.894 164.27 269.18 164.27Z" fill="white"/>
</g>
<defs>
<linearGradient id="paint0_linear_20_231" x1="78.2141" y1="266.269" x2="78.2141" y2="255.73" gradientUnits="userSpaceOnUse">
<stop stop-color="#808080" stop-opacity="0.25"/>
<stop offset="0.54" stop-color="#808080" stop-opacity="0.12"/>
<stop offset="1" stop-color="#808080" stop-opacity="0.1"/>
</linearGradient>
<linearGradient id="paint1_linear_20_231" x1="5066.76" y1="5199.05" x2="5066.76" y2="4996.38" gradientUnits="userSpaceOnUse">
<stop stop-color="#808080" stop-opacity="0.25"/>
<stop offset="0.54" stop-color="#808080" stop-opacity="0.12"/>
<stop offset="1" stop-color="#808080" stop-opacity="0.1"/>
</linearGradient>
<linearGradient id="paint2_linear_20_231" x1="45770.7" y1="179412" x2="45770.7" y2="10881.5" gradientUnits="userSpaceOnUse">
<stop stop-color="#808080" stop-opacity="0.25"/>
<stop offset="0.54" stop-color="#808080" stop-opacity="0.12"/>
<stop offset="1" stop-color="#808080" stop-opacity="0.1"/>
</linearGradient>
<linearGradient id="paint3_linear_20_231" x1="119.675" y1="223.543" x2="119.675" y2="248.141" gradientUnits="userSpaceOnUse">
<stop stop-color="#E0E0E0"/>
<stop offset="0.31" stop-color="#FCCC63"/>
<stop offset="0.77" stop-color="#F55F44"/>
</linearGradient>
<linearGradient id="paint4_linear_20_231" x1="3709" y1="15674.7" x2="3709" y2="17258.8" gradientUnits="userSpaceOnUse">
<stop stop-color="#E0E0E0"/>
<stop offset="0.31" stop-color="#FCCC63"/>
<stop offset="0.77" stop-color="#F55F44"/>
</linearGradient>
<linearGradient id="paint5_linear_20_231" x1="4045.58" y1="15674.7" x2="4045.58" y2="17258.8" gradientUnits="userSpaceOnUse">
<stop stop-color="#E0E0E0"/>
<stop offset="0.31" stop-color="#FCCC63"/>
<stop offset="0.77" stop-color="#F55F44"/>
</linearGradient>
<linearGradient id="paint6_linear_20_231" x1="4588.76" y1="15674.7" x2="4588.76" y2="17258.9" gradientUnits="userSpaceOnUse">
<stop stop-color="#E0E0E0"/>
<stop offset="0.31" stop-color="#FCCC63"/>
<stop offset="0.77" stop-color="#F55F44"/>
</linearGradient>
<linearGradient id="paint7_linear_20_231" x1="15019.1" y1="10846" x2="15019.1" y2="9045.32" gradientUnits="userSpaceOnUse">
<stop stop-color="#808080" stop-opacity="0.25"/>
<stop offset="0.54" stop-color="#808080" stop-opacity="0.12"/>
<stop offset="1" stop-color="#808080" stop-opacity="0.1"/>
</linearGradient>
<linearGradient id="paint8_linear_20_231" x1="4561.7" y1="10780.4" x2="4561.7" y2="9901.97" gradientUnits="userSpaceOnUse">
<stop stop-color="#808080" stop-opacity="0.25"/>
<stop offset="0.54" stop-color="#808080" stop-opacity="0.12"/>
<stop offset="1" stop-color="#808080" stop-opacity="0.1"/>
</linearGradient>
<clipPath id="clip0_20_231">
<rect width="320" height="311" fill="white"/>
</clipPath>
</defs>
</svg>
